<?xml version="1.0" encoding="UTF-8" standalone="no"?>
<!-- Created with Inkscape (http://www.inkscape.org/) -->

<svg
   xmlns:dc="http://purl.org/dc/elements/1.1/"
   xmlns:cc="http://creativecommons.org/ns#"
   xmlns:rdf="http://www.w3.org/1999/02/22-rdf-syntax-ns#"
   xmlns:svg="http://www.w3.org/2000/svg"
   xmlns="http://www.w3.org/2000/svg"
   xmlns:sodipodi="http://sodipodi.sourceforge.net/DTD/sodipodi-0.dtd"
   xmlns:inkscape="http://www.inkscape.org/namespaces/inkscape"
   width="210mm"
   height="297mm"
   viewBox="0 0 210 297"
   version="1.1"
   id="svg8"
   inkscape:version="0.92.4 (5da689c313, 2019-01-14)"
   sodipodi:docname="m1.svg">
  <defs
     id="defs2" />
  <sodipodi:namedview
     id="base"
     pagecolor="#ffffff"
     bordercolor="#666666"
     borderopacity="1.0"
     inkscape:pageopacity="0.0"
     inkscape:pageshadow="2"
     inkscape:zoom="0.98994949"
     inkscape:cx="222.54273"
     inkscape:cy="799.91449"
     inkscape:document-units="mm"
     inkscape:current-layer="text3768"
     showgrid="false"
     inkscape:window-width="1920"
     inkscape:window-height="1001"
     inkscape:window-x="-9"
     inkscape:window-y="-9"
     inkscape:window-maximized="1" />
  <metadata
     id="metadata5">
    <rdf:RDF>
      <cc:Work
         rdf:about="">
        <dc:format>image/svg+xml</dc:format>
        <dc:type
           rdf:resource="http://purl.org/dc/dcmitype/StillImage" />
        <dc:title />
      </cc:Work>
    </rdf:RDF>
  </metadata>
  <g
     inkscape:label="Layer 1"
     inkscape:groupmode="layer"
     id="layer1">
    <g
       aria-label="visual "
       style="font-style:normal;font-weight:normal;font-size:70.55554962px;line-height:1.25;font-family:sans-serif;letter-spacing:0px;word-spacing:0px;fill:#000000;fill-opacity:1;stroke:none;stroke-width:0.26458332"
       id="text12">
      <text
         xml:space="preserve"
         style="font-style:normal;font-weight:normal;font-size:25.4px;line-height:1.25;font-family:sans-serif;letter-spacing:0px;word-spacing:0px;fill:#000000;fill-opacity:1;stroke:none;stroke-width:0.07000434;"
         x="12.027128"
         y="30.799551"
         id="text3721"><tspan
           sodipodi:role="line"
           id="tspan3719"
           x="12.027128"
           y="95.169518"
           style="stroke-width:0.07000434;font-size:25.4px;" /></text>
      <g
         aria-label="Visual"
         style="font-style:normal;font-weight:normal;font-size:70.55554962px;line-height:1.25;font-family:sans-serif;letter-spacing:0px;word-spacing:0px;fill:#000000;fill-opacity:1;stroke:none;stroke-width:0.07000434"
         id="text3725" />
      <g
         aria-label="Visual
"
         style="font-style:normal;font-weight:normal;font-size:70.55554962px;line-height:1.25;font-family:sans-serif;letter-spacing:0px;word-spacing:0px;fill:#000000;fill-opacity:1;stroke:none;stroke-width:0.07000434"
         id="text3768">
        <path
           d="m 50.008302,27.07606 -0.291756,0.801523 -0.291757,0.801523 -0.291757,0.801523 -0.291756,0.801523 -0.291757,0.801523 -0.291756,0.801523 -0.291757,0.801523 -0.291756,0.801522 -0.291757,0.801523 -0.291756,0.801523 -0.291757,0.801523 -0.291756,0.801523 -0.291757,0.801523 -0.291756,0.801523 -0.291757,0.801523 -0.291756,0.801523 -0.291756,0.801523 -0.291757,0.801523 -0.291757,0.801523 -0.291756,0.801523 -0.291756,0.801523 -0.291757,0.801523 -0.291757,0.801523 -0.291756,0.801522 -0.291756,0.801523 -0.291757,0.801523 -0.291757,0.801523 -0.291756,0.801523 -0.291756,0.801523 -0.291757,0.801523 -0.291757,0.801523 -0.291756,0.801523 -0.291756,0.801523 -0.291757,0.801523 -0.291756,0.801523 -0.291757,0.801523 -0.291756,0.801523 -0.291757,0.801523 -0.291756,0.801523 -0.291757,0.801522 -0.291756,0.801523 -0.291757,0.801523 -0.291756,0.801523 -0.291757,0.801523 -0.291756,0.801523 -0.291757,0.801523 -0.291757,0.801523 -0.291756,0.801523 -0.291756,0.801523 -0.291757,0.801523 -0.291756,0.801523 -0.291757,0.801523 -0.291756,0.801523 -0.291757,0.801523 -0.291756,0.801523 -0.291757,0.801522 -0.291756,0.801523 -0.291757,0.801523 -0.291756,0.801523 -0.291757,0.801523 -0.291756,0.801523 -0.291757,0.801523 -0.291756,0.801523 -0.291757,0.801523 h -0.28422 -0.284221 -0.28422 -0.28422 -0.284221 -0.28422 -0.28422 -0.284221 -0.28422 -0.28422 -0.284221 -0.28422 -0.28422 -0.284221 -0.28422 -0.284221 -0.28422 -0.28422 -0.284221 -0.28422 -0.28422 -0.284221 -0.28422 -0.28422 -0.284221 -0.28422 -0.28422 -0.284221 -0.28422 -0.28422 -0.284221 -0.28422 L 21.949078,77.572005 21.657322,76.770482 21.365565,75.968959 21.073809,75.167436 20.782052,74.365913 20.490296,73.56439 20.198539,72.762867 19.906783,71.961344 19.615026,71.159822 19.32327,70.358299 19.031513,69.556776 18.739757,68.755253 18.448,67.95373 18.156244,67.152207 17.864487,66.350684 17.572731,65.549161 17.280974,64.747638 16.989218,63.946115 16.697461,63.144592 16.405705,62.343069 16.113948,61.541546 15.822192,60.740023 15.530435,59.9385 15.238679,59.136977 14.946922,58.335455 14.655166,57.533932 14.363409,56.732409 14.071653,55.930886 13.779896,55.129363 13.48814,54.32784 13.196383,53.526317 12.904627,52.724794 12.61287,51.923271 12.321114,51.121748 12.029357,50.320225 11.737601,49.518702 11.445844,48.717179 11.154088,47.915656 10.862331,47.114133 10.570575,46.31261 10.278818,45.511088 9.9870618,44.709565 9.6953053,43.908042 9.4035488,43.106519 9.1117923,42.304996 8.8200358,41.503473 8.5282793,40.70195 8.2365228,39.900427 7.9447663,39.098904 7.6530098,38.297381 7.3612533,37.495858 7.0694968,36.694335 6.7777403,35.892812 6.4859837,35.091289 6.1942272,34.289766 5.9024707,33.488243 5.6107142,32.686721 5.3189577,31.885198 5.0272012,31.083675 4.7354447,30.282152 4.4436882,29.480629 4.1519317,28.679106 3.8601752,27.877583 3.5684187,27.07606 H 4.0248938 4.481369 4.9378441 5.3943193 5.8507944 6.3072696 6.7637447 7.2202199 7.676695 8.1331701 8.5896453 9.0461204 9.5025956 9.9590707 10.415546 10.872021 l 0.251384,0.705168 0.251385,0.705168 0.251384,0.705168 0.251384,0.705168 0.251384,0.705168 0.251385,0.705168 0.251384,0.705167 0.251384,0.705168 0.251385,0.705168 0.251384,0.705168 0.251384,0.705168 0.251384,0.705168 0.251385,0.705168 0.251384,0.705168 0.251384,0.705168 0.251385,0.705168 0.251384,0.705168 0.251384,0.705168 0.251384,0.705168 0.251385,0.705167 0.251384,0.705168 0.251384,0.705168 0.251384,0.705168 0.251385,0.705168 0.251384,0.705168 0.251384,0.705168 0.251385,0.705168 0.251384,0.705168 0.251384,0.705168 0.251384,0.705168 0.251385,0.705168 0.251384,0.705167 0.251384,0.705168 0.251385,0.705168 0.251384,0.705168 0.251384,0.705168 0.251384,0.705168 0.251385,0.705168 0.251384,0.705168 0.251384,0.705168 0.251385,0.705168 0.251384,0.705168 0.251384,0.705168 0.251384,0.705168 0.251385,0.705167 0.251384,0.705168 0.251384,0.705168 0.251384,0.705168 0.251385,0.705168 0.251384,0.705168 0.251384,0.705168 0.251385,0.705168 0.251384,0.705168 0.251384,0.705168 0.251384,0.705168 0.251385,0.705168 0.251384,0.705168 0.251384,0.705167 0.251385,0.705168 0.251384,0.705168 0.251384,0.705168 0.251384,0.705168 0.251385,0.705168 0.251384,0.705168 0.251384,-0.705168 0.251385,-0.705168 0.251384,-0.705168 0.251384,-0.705168 0.251384,-0.705168 0.251385,-0.705168 0.251384,-0.705167 0.251384,-0.705168 0.251385,-0.705168 0.251384,-0.705168 0.251384,-0.705168 0.251385,-0.705168 0.251384,-0.705168 0.251384,-0.705168 0.251384,-0.705168 0.251385,-0.705168 0.251384,-0.705168 0.251384,-0.705168 0.251385,-0.705168 0.251384,-0.705167 0.251384,-0.705168 0.251385,-0.705168 0.251384,-0.705168 0.251384,-0.705168 0.251384,-0.705168 0.251385,-0.705168 0.251384,-0.705168 0.251384,-0.705168 0.251385,-0.705168 0.251384,-0.705168 0.251384,-0.705168 0.251385,-0.705168 0.251384,-0.705167 0.251384,-0.705168 0.251384,-0.705168 0.251385,-0.705168 0.251384,-0.705168 0.251384,-0.705168 0.251385,-0.705168 0.251384,-0.705168 0.251384,-0.705168 0.251384,-0.705168 0.251385,-0.705168 0.251384,-0.705168 0.251384,-0.705167 0.251385,-0.705168 0.251384,-0.705168 0.251384,-0.705168 0.251385,-0.705168 0.251384,-0.705168 0.251384,-0.705168 0.251384,-0.705168 0.251385,-0.705168 0.251384,-0.705168 0.251384,-0.705168 0.251385,-0.705168 0.251384,-0.705168 0.251384,-0.705167 0.251385,-0.705168 0.251384,-0.705168 0.251384,-0.705168 0.251384,-0.705168 0.251385,-0.705168 0.251384,-0.705168 h 0.217472 0.217471 0.217472 0.217472 0.217471 0.217472 0.217471 0.217472 0.217472 0.217471 0.217472 0.217472 0.217471 0.217472 0.217471 0.217472 0.217472 0.217471 0.217472 0.217472 0.217471 0.217472 0.217471 0.217472 0.217472 0.217471 0.217472 0.217472 0.217471 0.217472 0.217471 z"
           style="stroke-width:0.07000434"
           id="path3772"
           inkscape:connector-curvature="0"
           sodipodi:nodetypes="ccccccccccccccccccccccccccccccccccccccccccccccccccccccccccccccccccccccccccccccccccccccccccccccccccccccccccccccccccccccccccccccccccccccccccccccccccccccccccccccccccccccccccccccccccccccccccccccccccccccccccccccccccccccccccccccccccccccccccccccccccccccccccccccccccccccccccccccccccccccccccccccccccccccccccccccccccccccccccccccccccccccccccccccccc" />
        <path
           d="m 64.236543,33.449486 h -1.8259 -1.825901 -1.8259 -1.825901 v -1.679484 -1.679484 -1.679483 -1.679484 h 1.825901 1.8259 1.825901 1.8259 v 1.679484 1.679483 1.679484 z M 63.823132,78.373528 H 63.418333 63.013535 62.608736 62.203937 61.799139 61.39434 60.989541 60.584742 60.179944 59.775145 59.370346 58.965548 58.560749 58.15595 57.751152 57.346353 V 78.07289 77.772251 77.471613 77.170974 76.870336 76.569698 76.269059 75.968421 75.667782 75.367144 75.066506 74.765867 74.465229 74.164591 73.863952 73.563314 73.262675 72.962037 72.661399 72.36076 72.060122 71.759483 71.458845 71.158207 70.857568 70.55693 70.256291 69.955653 69.655015 69.354376 69.053738 68.753099 68.452461 68.151823 67.851184 67.550546 67.249908 66.949269 66.648631 66.347992 66.047354 65.746716 65.446077 65.145439 64.8448 64.544162 64.243524 63.942885 63.642247 63.341608 63.04097 62.740332 62.439693 62.139055 61.838417 61.537778 61.23714 60.936501 60.635863 60.335225 60.034586 59.733948 59.433309 59.132671 58.832033 58.531394 58.230756 57.930117 57.629479 57.328841 57.028202 56.727564 56.426925 56.126287 55.825649 55.52501 55.224372 54.923734 54.623095 54.322457 54.021818 53.72118 53.420542 53.119903 52.819265 52.518626 52.217988 51.91735 51.616711 51.316073 51.015434 50.714796 50.414158 50.113519 49.812881 49.512242 49.211604 48.910966 48.610327 48.309689 48.009051 47.708412 47.407774 47.107135 46.806497 46.505859 46.20522 45.904582 45.603943 45.303305 45.002667 44.702028 44.40139 44.100751 43.800113 43.499475 43.198836 42.898198 42.59756 42.296921 41.996283 41.695644 41.395006 41.094368 40.793729 40.493091 40.192452 39.891814 h 0.809597 0.809598 0.809597 0.809597 0.809598 0.809597 0.809598 0.809597 v 0.300638 0.300639 0.300638 0.300639 0.300638 0.300638 0.300639 0.300638 0.300639 0.300638 0.300638 0.300639 0.300638 0.300638 0.300639 0.300638 0.300639 0.300638 0.300638 0.300639 0.300638 0.300639 0.300638 0.300638 0.300639 0.300638 0.300639 0.300638 0.300638 0.300639 0.300638 0.300638 0.300639 0.300638 0.300639 0.300638 0.300638 0.300639 0.300638 0.300639 0.300638 0.300638 0.300639 0.300638 0.300639 0.300638 0.300638 0.300639 0.300638 0.300639 0.300638 0.300638 0.300639 0.300638 0.300638 0.300639 0.300638 0.300639 0.300638 0.300638 0.300639 0.300638 0.300639 0.300638 0.300638 0.300639 0.300638 0.300639 0.300638 0.300638 0.300639 0.300638 0.300639 0.300638 0.300638 0.300639 0.300638 0.300638 0.300639 0.300638 0.300639 0.300638 0.300638 0.300639 0.300638 0.300639 0.300638 0.300638 0.300639 0.300638 0.300639 0.300638 0.300638 0.300639 0.300638 0.300638 0.300639 0.300638 0.300639 0.300638 0.300638 0.300639 0.300638 0.300639 0.300638 0.300638 0.300639 0.300638 0.300639 0.300638 0.300638 0.300639 0.300638 0.300639 0.300638 0.300638 0.300639 0.300638 0.300638 0.300639 0.300638 0.300639 0.300638 0.300638 0.300639 0.300638 0.300639 z"
           style="stroke-width:0.07000434"
           id="path3774"
           inkscape:connector-curvature="0"
           sodipodi:nodetypes="cccccccccccccccccccccccccccccccccccccccccccccccccccccccccccccccccccccccccccccccccccccccccccccccccccccccccccccccccccccccccccccccccccccccccccccccccccccccccccccccccccccccccccccccccccccccccccccccccccccccccccccccccccccccccccccccccccccccccccccccccccccccccccccccccccccccccccccccccccccccccccccccccccccccccc" />
        <path
           d="m 104.19965,67.280321 c 0,0.43925 -0.0228,0.868631 -0.0684,1.288143 -0.0456,0.419512 -0.11394,0.829155 -0.20509,1.22893 -0.0912,0.399774 -0.2051,0.78968 -0.34182,1.169717 -0.13673,0.380037 -0.29625,0.750206 -0.47855,1.110505 -0.1823,0.3603 -0.38739,0.710731 -0.61527,1.051293 -0.22788,0.340562 -0.47855,0.671255 -0.752,0.992079 -0.27346,0.320825 -0.5697,0.631781 -0.88873,0.932867 -0.31903,0.301087 -0.66085,0.592306 -1.025454,0.873655 -0.361735,0.281349 -0.740157,0.545114 -1.135267,0.791295 -0.395109,0.246181 -0.806905,0.474777 -1.235389,0.685789 -0.428484,0.211012 -0.873655,0.40444 -1.335513,0.580284 -0.461858,0.175843 -0.940403,0.334102 -1.435636,0.474777 -0.495232,0.140674 -1.007152,0.263765 -1.535759,0.369271 -0.528606,0.105506 -1.073901,0.193428 -1.635882,0.263765 -0.561981,0.07034 -1.140649,0.12309 -1.736005,0.158259 -0.595355,0.03517 -1.207398,0.05275 -1.836128,0.05275 -2.847945,0 -5.466218,-0.333026 -7.854817,-0.999077 -2.365632,-0.689019 -4.352303,-1.435457 -5.960014,-2.239312 v -7.269151 h 0.344509 c 2.04409,1.538809 4.317853,2.76756 6.821289,3.686252 1.251718,0.447862 2.477597,0.783759 3.677639,1.00769 1.200041,0.223931 2.374245,0.335897 3.52261,0.335897 2.847945,0 5.075773,-0.459346 6.683484,-1.378038 1.607711,-0.918692 2.411567,-2.365632 2.411567,-4.34082 0,-1.515842 -0.436379,-2.664207 -1.309136,-3.445095 -0.872758,-0.780889 -2.549371,-1.446941 -5.029839,-1.998156 -0.918692,-0.206705 -2.124475,-0.447862 -3.61735,-0.72347 -1.469907,-0.275607 -2.813495,-0.574182 -4.030762,-0.895724 -3.376193,-0.895725 -5.776276,-2.204861 -7.200249,-3.927409 -1.401005,-1.745515 -2.101508,-3.881474 -2.101508,-6.407877 0,-1.584744 0.321542,-3.077619 0.964627,-4.478624 0.666052,-1.401005 1.66513,-2.652723 2.997233,-3.755153 1.286169,-1.079463 2.916847,-1.929254 4.892035,-2.549371 1.998155,-0.643085 4.225984,-0.964627 6.683485,-0.964627 2.29673,0 4.616427,0.287091 6.959092,0.861274 2.365632,0.551215 4.329338,1.228751 5.891108,2.032606 v 6.924642 h -0.3445 c -1.65365,-1.217267 -3.663289,-2.239312 -6.028921,-3.066135 -0.295704,-0.106224 -0.59069,-0.205809 -0.884959,-0.298754 -0.294268,-0.09295 -0.587819,-0.179253 -0.880652,-0.258921 -0.292833,-0.07967 -0.584949,-0.152696 -0.876346,-0.219086 -0.291398,-0.06639 -0.582078,-0.126141 -0.87204,-0.179253 -0.289962,-0.05311 -0.579207,-0.09959 -0.867734,-0.139418 -0.288526,-0.03983 -0.576335,-0.07303 -0.863427,-0.09958 -0.287091,-0.02656 -0.573465,-0.04647 -0.859121,-0.05975 -0.285655,-0.01328 -0.570594,-0.01992 -0.854814,-0.01992 -2.365632,0 -4.363787,0.459346 -5.994465,1.378038 -1.630679,0.895725 -2.446018,2.239312 -2.446018,4.030761 0,1.584744 0.493797,2.779044 1.481391,3.582899 0.120578,0.100482 0.250487,0.198631 0.389726,0.294448 0.13924,0.09582 0.287809,0.189301 0.44571,0.280453 0.1579,0.09115 0.32513,0.17997 0.501692,0.266456 0.176561,0.08649 0.362452,0.17064 0.557674,0.252461 0.195222,0.08182 0.399775,0.16131 0.613658,0.238466 0.213883,0.07715 0.437096,0.151978 0.66964,0.224469 0.232544,0.07249 0.474418,0.142649 0.725623,0.210474 0.251205,0.06782 0.51174,0.133318 0.781606,0.196478 1.1943,0.275607 2.526404,0.551215 3.996311,0.826822 1.492875,0.275608 2.733109,0.528248 3.720703,0.757921 0.188045,0.04306 0.373398,0.08806 0.55606,0.134978 0.182662,0.04692 0.362632,0.09577 0.539911,0.146551 0.177279,0.05078 0.351866,0.103487 0.523762,0.158124 0.171896,0.05464 0.3411,0.111204 0.507613,0.169698 0.166513,0.0585 0.330334,0.118919 0.491464,0.181272 0.16113,0.06235 0.319569,0.126634 0.475316,0.192844 0.155747,0.06621 0.308802,0.13435 0.459167,0.204418 0.150364,0.07007 0.298036,0.142065 0.443017,0.215991 0.144981,0.07393 0.287271,0.149781 0.426869,0.227565 0.139598,0.07778 0.276505,0.157497 0.41072,0.239138 0.134215,0.08164 0.265739,0.165212 0.394574,0.250712 0.12883,0.0855 0.25497,0.172927 0.37842,0.262284 0.12345,0.08936 0.24421,0.180644 0.36227,0.273858 0.11807,0.09322 0.23344,0.188359 0.34613,0.285432 0.11268,0.09707 0.22267,0.196074 0.32997,0.297005 0.1073,0.10093 0.21191,0.20379 0.31383,0.308578 1.63068,1.699581 2.44602,3.950376 2.44602,6.752387 z"
           style="stroke-width:0.07000434"
           id="path3776"
           inkscape:connector-curvature="0"
           sodipodi:nodetypes="sssssssscsssssssscccccsssssccccscccscccccsssssssscscssssssscccssssssssssssssscs" />
        <path
           d="m 145.40299,78.373528 h -6.47678 v -4.271919 c -2.18189,1.722548 -4.27192,3.043168 -6.27008,3.96186 -1.99815,0.918692 -4.20301,1.378038 -6.61458,1.378038 -4.04225,0 -7.18877,-1.228751 -9.43956,-3.686252 -2.25079,-2.480469 -3.37619,-6.109302 -3.37619,-10.886501 V 63.307695 61.746636 60.185578 58.624519 57.06346 55.502401 53.941343 52.380284 50.819225 49.258166 47.697108 46.136049 44.57499 43.013931 41.452873 39.891814 h 6.47678 v 0.684713 0.684712 0.684713 0.684713 0.684712 0.684713 0.684713 0.684712 0.684713 0.684713 0.684713 0.684712 0.684713 0.684713 0.684712 0.684713 0.684713 0.684712 0.684713 0.684713 0.684712 0.684713 0.684713 0.684712 0.684713 0.684713 0.684713 0.684712 0.684713 0.684713 0.684712 0.684713 c 0,1.952221 0.0919,3.628834 0.2756,5.029839 0.18374,1.378038 0.57419,2.560854 1.17134,3.548448 0.62011,1.010561 1.42397,1.745515 2.41156,2.204861 0.98759,0.459346 2.42305,0.689019 4.30637,0.689019 1.67661,0 3.50251,-0.436379 5.4777,-1.309137 1.99816,-0.872757 3.85851,-1.986671 5.58106,-3.341742 V 66.828152 65.032396 63.23664 61.440884 59.645129 57.849373 56.053617 54.257861 52.462105 50.666349 48.870593 47.074837 45.279082 43.483326 41.68757 39.891814 h 6.47678 v 1.202554 1.202553 1.202554 1.202553 1.202554 1.202553 1.202554 1.202553 1.202554 1.202554 1.202553 1.202554 1.202553 1.202554 1.202553 1.202554 1.202554 1.202553 1.202554 1.202553 1.202554 1.202553 1.202554 1.202553 1.202554 1.202554 1.202553 1.202554 1.202553 1.202554 1.202553 z"
           style="stroke-width:0.07000434"
           id="path3778"
           inkscape:connector-curvature="0"
           sodipodi:nodetypes="ccccscsccccccccccccccccccccccccccccccccccccccccccccccccsccssccccccccccccccccccccccccccccccccccccccccccccccccccc" />
        <path
           d="m 188.05326,78.373528 h -6.44233 v -4.099664 q -0.86127,0.585666 -2.34266,1.653646 -1.44694,1.033528 -2.82498,1.653646 -1.6192,0.792372 -3.7207,1.309136 -2.10151,0.551215 -4.92649,0.551215 -5.20209,0 -8.81944,-3.445095 -3.61735,-3.445095 -3.61735,-8.784993 0,-4.375271 1.86035,-7.062445 1.8948,-2.721625 5.37435,-4.271918 3.51399,-1.550293 8.44048,-2.101508 4.92649,-0.551215 10.57644,-0.826823 v -0.999078 q 0,-2.204861 -0.79237,-3.651801 -0.75792,-1.44694 -2.20486,-2.273762 -1.37804,-0.792372 -3.30729,-1.06798 -1.92926,-0.275607 -4.03076,-0.275607 -2.54937,0 -5.68441,0.689019 -3.13504,0.654568 -6.47678,1.929253 h -0.34451 v -6.580132 q 1.8948,-0.516764 5.4777,-1.136881 3.5829,-0.620118 7.06245,-0.620118 4.06521,0 7.06244,0.68902 3.03169,0.654568 5.23655,2.273762 2.17041,1.584744 3.30729,4.099664 1.13688,2.514919 1.13688,6.235622 z m -6.44233,-9.474012 V 58.18527 q -2.96278,0.172254 -6.99354,0.516764 -3.99631,0.344509 -6.33898,0.999078 -2.79052,0.792371 -4.51307,2.480468 -1.72255,1.653646 -1.72255,4.581977 0,3.307291 1.99816,4.995388 1.99815,1.653645 6.09782,1.653645 3.41064,0 6.23562,-1.309136 2.82498,-1.343587 5.23654,-3.203938 z"
           style="stroke-width:0.07000434"
           id="path3780" />
        <path
           d="m 207.13909,78.373528 h -6.47678 V 24.767846 h 6.47678 z"
           style="stroke-width:0.07000434"
           id="path3782" />
      </g>
    </g>
  </g>
</svg>
