<?xml version="1.0" encoding="UTF-8" standalone="no"?>
<!-- Created with Inkscape (http://www.inkscape.org/) -->

<svg
   xmlns:dc="http://purl.org/dc/elements/1.1/"
   xmlns:cc="http://creativecommons.org/ns#"
   xmlns:rdf="http://www.w3.org/1999/02/22-rdf-syntax-ns#"
   xmlns:svg="http://www.w3.org/2000/svg"
   xmlns="http://www.w3.org/2000/svg"
   xmlns:sodipodi="http://sodipodi.sourceforge.net/DTD/sodipodi-0.dtd"
   xmlns:inkscape="http://www.inkscape.org/namespaces/inkscape"
   width="210mm"
   height="297mm"
   viewBox="0 0 210 297"
   version="1.1"
   id="svg8"
   inkscape:version="0.92.4 (5da689c313, 2019-01-14)"
   sodipodi:docname="m1.svg">
  <defs
     id="defs2" />
  <sodipodi:namedview
     id="base"
     pagecolor="#ffffff"
     bordercolor="#666666"
     borderopacity="1.0"
     inkscape:pageopacity="0.0"
     inkscape:pageshadow="2"
     inkscape:zoom="0.98994949"
     inkscape:cx="1.6460526"
     inkscape:cy="831.47609"
     inkscape:document-units="mm"
     inkscape:current-layer="text12"
     showgrid="false"
     inkscape:window-width="1920"
     inkscape:window-height="1001"
     inkscape:window-x="-9"
     inkscape:window-y="-9"
     inkscape:window-maximized="1" />
  <metadata
     id="metadata5">
    <rdf:RDF>
      <cc:Work
         rdf:about="">
        <dc:format>image/svg+xml</dc:format>
        <dc:type
           rdf:resource="http://purl.org/dc/dcmitype/StillImage" />
        <dc:title></dc:title>
      </cc:Work>
    </rdf:RDF>
  </metadata>
  <g
     inkscape:label="Layer 1"
     inkscape:groupmode="layer"
     id="layer1">
    <g
       aria-label="visual
"
       style="font-style:normal;font-weight:normal;font-size:70.55554962px;line-height:1.25;font-family:sans-serif;letter-spacing:0px;word-spacing:0px;fill:#000000;fill-opacity:1;stroke:none;stroke-width:0.26458332"
       id="text12">
      <path
         d="m 45.700664,20.393283 -15.57183,38.481713 h -6.51123 L 8.1491265,20.393283 H 15.177121 L 27.09715,51.020179 38.913827,20.393283 Z"
         style="stroke-width:0.26458332"
         id="path16" />
      <path
         d="M 61.134692,13.950955 H 53.83109 V 7.2330192 h 7.303602 z M 60.72128,58.874996 H 54.244501 V 20.393283 h 6.476779 z"
         style="stroke-width:0.26458332"
         id="path18" />
      <path
         d="m 101.09779,47.78179 q 0,5.270995 -4.375266,8.647189 -4.34082,3.376193 -11.885578,3.376193 -4.271918,0 -7.854817,-0.999078 -3.548449,-1.033528 -5.960015,-2.239312 v -7.26915 h 0.344509 q 3.066135,2.308213 6.821289,3.686251 3.755154,1.343588 7.200249,1.343588 4.271918,0 6.683485,-1.378039 2.411566,-1.378038 2.411566,-4.340819 0,-2.273763 -1.309136,-3.445096 -1.309136,-1.171332 -5.029839,-1.998155 -1.378038,-0.310058 -3.61735,-0.72347 -2.204861,-0.413411 -4.030761,-0.895725 -5.06429,-1.343587 -7.200249,-3.927408 -2.101508,-2.618273 -2.101508,-6.407877 0,-2.377116 0.964626,-4.478624 0.999078,-2.101508 2.997233,-3.755154 1.929253,-1.619195 4.892035,-2.54937 2.997233,-0.964627 6.683485,-0.964627 3.445095,0 6.959092,0.861274 3.548448,0.826823 5.891113,2.032606 v 6.924641 h -0.344509 q -2.480469,-1.8259 -6.028917,-3.066134 -3.548448,-1.274685 -6.959092,-1.274685 -3.548448,0 -5.994466,1.378038 -2.446018,1.343587 -2.446018,4.030761 0,2.377116 1.481391,3.582899 1.44694,1.205783 4.68533,1.963704 1.791449,0.413412 3.99631,0.826823 2.239312,0.413411 3.720703,0.757921 4.513075,1.033529 6.959092,3.548448 2.446013,2.549371 2.446013,6.752387 z"
         style="stroke-width:0.26458332"
         id="path20" />
      <path
         d="m 142.30113,58.874996 h -6.47677 v -4.271918 q -3.27285,2.583822 -6.27008,3.96186 -2.99723,1.378038 -6.61458,1.378038 -6.06337,0 -9.43956,-3.686252 -3.3762,-3.720703 -3.3762,-10.886501 v -24.97694 h 6.47678 v 21.910805 q 0,2.928331 0.27561,5.029839 0.27561,2.067057 1.17133,3.548448 0.93018,1.515842 2.41157,2.204861 1.48139,0.689019 4.30637,0.689019 2.51492,0 5.4777,-1.309136 2.99723,-1.309136 5.58106,-3.341742 V 20.393283 h 6.47677 z"
         style="stroke-width:0.26458332"
         id="path22" />
      <path
         d="m 184.95141,58.874996 h -6.44233 v -4.099663 q -0.86127,0.585666 -2.34266,1.653646 -1.44694,1.033528 -2.82498,1.653645 -1.6192,0.792372 -3.7207,1.309136 -2.10151,0.551216 -4.92649,0.551216 -5.20209,0 -8.81944,-3.445096 -3.61735,-3.445095 -3.61735,-8.784992 0,-4.375271 1.86035,-7.062445 1.8948,-2.721626 5.37435,-4.271918 3.51399,-1.550293 8.44048,-2.101509 4.92648,-0.551215 10.57644,-0.826822 v -0.999078 q 0,-2.204861 -0.79237,-3.651801 -0.75792,-1.44694 -2.20486,-2.273763 -1.37804,-0.792372 -3.30729,-1.067979 -1.92926,-0.275608 -4.03076,-0.275608 -2.54938,0 -5.68441,0.689019 -3.13504,0.654568 -6.47678,1.929254 h -0.34451 v -6.580132 q 1.8948,-0.516765 5.4777,-1.136882 3.5829,-0.620117 7.06245,-0.620117 4.06521,0 7.06244,0.689019 3.03168,0.654568 5.23655,2.273763 2.17041,1.584744 3.30729,4.099663 1.13688,2.51492 1.13688,6.235623 z m -6.44233,-9.474012 V 38.686738 q -2.96278,0.172255 -6.99354,0.516765 -3.99631,0.344509 -6.33898,0.999077 -2.79052,0.792372 -4.51307,2.480469 -1.72255,1.653645 -1.72255,4.581976 0,3.307292 1.99816,4.995388 1.99815,1.653646 6.09781,1.653646 3.41065,0 6.23563,-1.309136 2.82497,-1.343587 5.23654,-3.203939 z"
         style="stroke-width:0.26458332"
         id="path24" />
      <path
         d="m 204.03724,58.874996 h -6.47678 V 5.2693149 h 6.47678 z"
         style="stroke-width:0.26458332"
         id="path26" />
    </g>
  </g>
</svg>
